<svg xmlns="http://www.w3.org/2000/svg" fill="none" viewBox="0 0 163 70"><g filter="url(#a)"><circle cx="33.007" cy="28.006" r="28.006" fill="#00243F"/></g><path fill="url(#b)" d="M28.022 15.093 38.6 36.61h10.246L38.028 15.093H28.022Z"/><path fill="#fff" d="M38.026 15.093 27.446 36.61H17.2l10.82-21.517h10.006Z"/><path fill="#00243F" d="M85.227 21.272c-.877-1.38-2.826-2.24-5.206-2.24a8.206 8.206 0 0 0-6.13 2.587c-1.625 1.695-2.45 3.834-2.45 6.36 0 2.527.801 4.64 2.453 6.392a8.285 8.285 0 0 0 6.127 2.555c2.377 0 4.329-.86 5.206-2.241v1.877h4.342V19.4h-4.342v1.872Zm-1.153 10.259a4.799 4.799 0 0 1-3.518 1.426 4.656 4.656 0 0 1-3.45-1.426 5.34 5.34 0 0 1 0-7.107 4.658 4.658 0 0 1 3.453-1.426 4.796 4.796 0 0 1 3.52 1.426 5.065 5.065 0 0 1 0 7.1l-.005.007ZM103.407 19.064c-2.14 0-3.889.865-4.84 2.344v-2.009h-4.309v17.163h4.31v-9.017c0-2.677 1.663-4.338 4.37-4.338.55 0 1.097.055 1.636.164l.202.04v-4.216l-.136-.026a6.378 6.378 0 0 0-1.233-.105ZM116.251 22.841a5.504 5.504 0 0 1 4.15 1.783l.121.128 2.695-2.812-.109-.119a9.034 9.034 0 0 0-6.867-2.956 9.245 9.245 0 0 0-6.624 2.614c-1.809 1.742-2.688 3.855-2.688 6.465s.903 4.78 2.688 6.496c1.785 1.716 4.019 2.598 6.634 2.598a9.03 9.03 0 0 0 6.866-2.957l.11-.119-2.705-2.812-.121.129a5.515 5.515 0 0 1-4.15 1.782 4.882 4.882 0 0 1-3.582-1.45 5.411 5.411 0 0 1 0-7.306 4.886 4.886 0 0 1 3.582-1.464ZM141.126 19.4h-2.319l-4.754 6.46-4.723-6.46h-2.319l5.899 8.08-6.427 9.077h2.315l5.288-7.453 5.286 7.453h2.315l-6.46-9.11 5.899-8.048ZM160.483 21.553a8.603 8.603 0 0 0-10.527-1.39 6.03 6.03 0 0 0-2.11 2.11v-2.874h-2.006v23.602h2.006v-9.312a6.041 6.041 0 0 0 2.113 2.139 8.689 8.689 0 0 0 10.524-1.426c1.664-1.74 2.517-3.9 2.517-6.418 0-2.517-.846-4.692-2.517-6.431Zm-6.13 13.533c-1.949 0-3.515-.649-4.784-1.984-1.269-1.336-1.923-3.064-1.923-5.122 0-2.059.646-3.751 1.923-5.092a6.362 6.362 0 0 1 4.784-2.013 6.124 6.124 0 0 1 4.718 2.052c1.277 1.34 1.923 3.042 1.923 5.057a7.187 7.187 0 0 1-1.925 5.058 6.125 6.125 0 0 1-4.716 2.044Z"/><defs><linearGradient id="b" x1="49.81" x2="26.982" y1="35.474" y2="16.283" gradientUnits="userSpaceOnUse"><stop offset=".002" stop-color="#4FBFA2"/><stop offset=".22" stop-color="#4EBEA4"/><stop offset=".347" stop-color="#49BBA8"/><stop offset=".451" stop-color="#3FB8AF"/><stop offset=".541" stop-color="#2CB3BA"/><stop offset=".624" stop-color="#00AEC7"/><stop offset=".7" stop-color="#00A7D6"/><stop offset=".733" stop-color="#00A3E0"/></linearGradient><filter id="a" width="65.914" height="69.684" x=".05" y="0" color-interpolation-filters="sRGB" filterUnits="userSpaceOnUse"><feFlood flood-opacity="0" result="BackgroundImageFix"/><feColorMatrix in="SourceAlpha" values="0 0 0 0 0 0 0 0 0 0 0 0 0 0 0 0 0 0 127 0"/><feMorphology in="SourceAlpha" radius="1.026" result="effect1_dropShadow"/><feOffset dy="8.721"/><feGaussianBlur stdDeviation="2.988"/><feColorMatrix values="0 0 0 0 0.168627 0 0 0 0 0.172549 0 0 0 0 0.176471 0 0 0 0.35 0"/><feBlend in2="BackgroundImageFix" result="effect1_dropShadow"/><feBlend in="SourceGraphic" in2="effect1_dropShadow" result="shape"/></filter></defs></svg>