<svg xmlns="http://www.w3.org/2000/svg" viewBox="0 0 890.97 182.02"><g class="cls-2"><path d="m558.66 73.77-2-2.14-3.84 3.17-4.11-3.44v-39.6l-9-9.3c-.07 0-7.11 5.06-11.57 7.62-2.46 1.42-7.62 3.53-11.32 2.44l-.2-.08a3.56 3.56 0 1 0-6-2.62 3.66 3.66 0 0 0 .41 1.65 7.86 7.86 0 0 0 4.91 3.93 10.83 10.83 0 0 0 3.09.41 22.81 22.81 0 0 0 10.58-3.13c.68-.39 1.41-.83 2.16-1.3l5.15 5.34v7.79a35 35 0 0 0-7.13 1 29.86 29.86 0 0 0-5.2 1.79 20.75 20.75 0 0 0-5.32 3.73 25.59 25.59 0 0 0-4.22 5.17 19.91 19.91 0 0 0-2.53 5.92 13.42 13.42 0 0 0-.36 3c0 8.85 6.63 14.07 14.58 17.39h2l9-7.5 9.58 8Zm-21.65-1.85-.91.75h-.14c-7.17.07-13-5.25-13-11.74a12 12 0 0 1 4.73-9.2 13.33 13.33 0 0 1 3.31-1.91 15.28 15.28 0 0 1 6-1ZM649.95 35.4a10.83 10.83 0 0 0 3.09.41 22.81 22.81 0 0 0 10.58-3.13c.68-.39 1.41-.83 2.16-1.3l5.15 5.34v7.79a35 35 0 0 0-7.13 1 29.57 29.57 0 0 0-5.2 1.79 20.75 20.75 0 0 0-5.32 3.73 25.59 25.59 0 0 0-4.22 5.17 19.91 19.91 0 0 0-2.53 5.92 13.42 13.42 0 0 0-.36 3c0 8.85 6.62 14.07 14.58 17.39h2l9-7.5 9.59 8 11.2-9.24-2-2.14-3.84 3.17-4.11-3.44v-39.6l-9-9.3c-.07 0-7.11 5.06-11.57 7.62-2.46 1.42-7.62 3.53-11.33 2.44l-.19-.08a3.56 3.56 0 1 0-6-2.62 3.79 3.79 0 0 0 .4 1.65 7.88 7.88 0 0 0 4.92 3.93m21 36.52-.91.75h-.14c-7.17.07-13-5.25-13-11.74a12 12 0 0 1 4.73-9.2 13.15 13.15 0 0 1 3.31-1.91 15.28 15.28 0 0 1 6-1ZM204.15 16.04a19.64 19.64 0 0 1 10.26-3.62c7.65-.57 26.52 4.11 31.66 4.91v54.63c-.31 0-.67.07-1 .09s-1 0-1.82 0a30.69 30.69 0 0 1-9.93-1.53 20.89 20.89 0 0 1-7.66-4.44l-2.48-1.78 16.08-8.06V25.15L213.77 37.9a37.28 37.28 0 0 1 2.66-11.45 36.85 36.85 0 0 1 3.4-6.26l-.68-1a25.51 25.51 0 0 0-12.16 10.21 37 37 0 0 0-5.18 19.2 36.6 36.6 0 0 0 2.34 13.29 31.89 31.89 0 0 0 7 10.8 35.51 35.51 0 0 0 12 7.9 39.42 39.42 0 0 0 14.73 2.68q12.47 0 20.76-7.2t11.34-20.58l-1.17-.48a38.39 38.39 0 0 1-8.77 10.87 28.15 28.15 0 0 1-11.11 5.57V17.52a11.76 11.76 0 0 0 1.2.06h1.9q8.25 0 13-4.55T270.32.24l-.93-.24a14.1 14.1 0 0 1-4.07 5 9.15 9.15 0 0 1-5.29 1.45q-4.15 0-13.09-2.18c-3.08-.77-5.46-1.31-7.13-1.64-3.71-.76-6.68-1.29-8.92-1.57a48.72 48.72 0 0 0-5.93-.43q-12.28 0-19.59 6t-8.88 17.3h1.05a26.2 26.2 0 0 1 6.66-7.81m16.82 46.12a28.36 28.36 0 0 1-5-7.95 32.67 32.67 0 0 1-2.4-12.69v-.35l13.22-6.65v24.61ZM331.65 28.94c-1.62 1-3.18 1.89-4.68 2.64a26.45 26.45 0 0 1-5.51 2v.83a7.84 7.84 0 0 1 1.91 2.92 16.83 16.83 0 0 1 .79 5.75l-.08 28.93 13.25 11.12 16.26-13.58-1.93-2.08-9 7.41-7.05-5.91v-12.7q5.88-5.09 10.76-9t9.61-7.46l-15.52-17c-3.23 2.5-6.18 4.59-8.82 6.24M335 52.88v-21l11 11.88ZM456.47 74.39l10.4 8.69 11.27-9.31-2-2.14-3.88 3.2-4.07-3.4V32.98h5.35l4.44-3.87h-9.76V7.24h-.73l-15.39 12v1c2.2 0 4.38.39 4.38 6.08v2.8h-4.38v3.87h4.38ZM636.29 74.83l-4.07-3.4V32.98h8.42V29.1h-8.42V7.24h-.74l-15.39 12v1c2.2 0 4.38.39 4.38 6.08v2.79h-5.38l-4.77 3.88h10.15V74.4l10.4 8.69 11.28-9.31-2-2.14ZM668.42 124.34l4.7-3.87h-10.9V98.6h-.68l-15.39 12v1c2.2 0 4.38.39 4.38 6.07v2.8h-4.38v3.87h4.38v41.41l10.4 8.69 11.27-9.31-2-2.14-3.87 3.2-4.08-3.4v-38.45ZM608.81 124.34l4.7-3.87h-10.89V98.6h-.74l-15.34 12v1c2.2 0 4.38.39 4.38 6.07v2.8h-4.38v3.87h4.38v41.41l10.41 8.69 11.21-9.31-2-2.14-3.88 3.2-4.07-3.4v-38.45ZM753.3 124.34l4.7-3.87h-10.9V98.6h-.73l-15.39 12v1c2.2 0 4.38.39 4.38 6.07v2.8h-4.38v3.87h4.38v41.41l10.4 8.69 11.27-9.31-2-2.14-3.87 3.2-4.08-3.4v-38.45ZM324.98 166.17l-4.1-3.43V94.6h-.73l-15.39 12v1c2.2 0 4.38.38 4.38 6.07v52l10.4 8.73 11.27-9.31-2-2.14ZM104.54 156.35v-33.2a28.08 28.08 0 0 1-8.53-2.78 69.34 69.34 0 0 1-10.25-6.31 32.87 32.87 0 0 1-16 9.89 17 17 0 0 1-2.64.34v1.15c.79.76 1.5.6 1.61 5.55v34.61a28.55 28.55 0 0 1 8.54 2.79 70.6 70.6 0 0 1 10.25 6.3 32.79 32.79 0 0 1 14.36-9.38 15.85 15.85 0 0 1 4.33-.8v-1.15c-.86-.83-1.63-.55-1.63-7m-18.35 5c-2.06-.9-4-1.68-5.94-2.36v-34.75q3.62 1.75 6.79 3.15t5.94 2.35v34.73c-2.4-1.17-4.67-2.22-6.79-3.15M476.87 156.35v-33.2a28.13 28.13 0 0 1-8.54-2.78 69.34 69.34 0 0 1-10.25-6.31 34.26 34.26 0 0 1-7.71 6.37 34.68 34.68 0 0 1-8.33 3.52 17 17 0 0 1-2.64.34v1.15c.79.76 1.5.6 1.61 5.55v34.61a28.46 28.46 0 0 1 8.54 2.79 70.07 70.07 0 0 1 10.25 6.3 34.47 34.47 0 0 1 7.74-6.39 33.7 33.7 0 0 1 6.66-3 15.7 15.7 0 0 1 4.32-.8v-1.15c-.86-.83-1.62-.55-1.62-7m-18.36 5c-2.05-.9-4-1.68-5.94-2.36v-34.74q3.62 1.75 6.8 3.15t5.93 2.35v34.73c-2.4-1.17-4.67-2.22-6.79-3.15M829.8 156.35v-33.2a28.13 28.13 0 0 1-8.54-2.78 69.34 69.34 0 0 1-10.25-6.31 34.26 34.26 0 0 1-7.71 6.37 34.68 34.68 0 0 1-8.33 3.52 17 17 0 0 1-2.64.34v1.15c.79.76 1.5.6 1.61 5.55v34.61a28.46 28.46 0 0 1 8.54 2.79 70.07 70.07 0 0 1 10.25 6.3 34.47 34.47 0 0 1 7.71-6.36 33.7 33.7 0 0 1 6.66-3 15.7 15.7 0 0 1 4.32-.8v-1.15c-.86-.83-1.62-.55-1.62-7m-18.36 5c-2-.9-4-1.68-5.94-2.36v-34.77q3.62 1.75 6.8 3.15t5.94 2.35v34.73q-3.62-1.75-6.8-3.15M422 161.01a28.23 28.23 0 0 1-12 2.68c-.92 0-1.81 0-2.66-.09s-1.67-.15-2.43-.27l-.06-58.08q5.26 1.77 9.4 3.35c2.75 1.05 5.18 2.05 7.3 3l10.89-12h-.6a39.6 39.6 0 0 1-11.61-1.82 55.48 55.48 0 0 1-11.91-5.27l-23.98 20.38v30.65a25.39 25.39 0 0 1-.33 4.69 7 7 0 0 1-1.11 2.74 27.4 27.4 0 0 1-5.17-9.62 41.6 41.6 0 0 1-1.71-12.41 33.69 33.69 0 0 1 3.5-15.58 39 39 0 0 1 11.1-12.76l-.24-.48a36.08 36.08 0 0 0-18.16 14.48 42 42 0 0 0-6.68 23.57q0 16.19 10.11 26.58t25.79 10.4q11.79 0 19.87-5.35t13.58-16.82l-.84-.49a46.46 46.46 0 0 1-12 8.52m-20 1.83a32.65 32.65 0 0 1-9.49-3.59 29.68 29.68 0 0 1-7.62-6.27q6.69-5.67 9.39-10.69a24.07 24.07 0 0 0 2.69-11.59v-23.19l5-4.26ZM333.42 145.22h20.73l1.37-7.55h-20.73l-1.37 7.55zM184.87 122.35a10.67 10.67 0 0 0 5.84 3.37c6.25 1.34 10.69-3.72 12.09-10.05l-.9-.13a11.21 11.21 0 0 1-5.54.92 10 10 0 0 1-5.44-3l-9 7.48-8.92-7.45-11.27 9.32 2 2.13 3.88-3.2 4.07 3.41v41.38l10.4 7.9 7.69-6.35 3.58-3-2-2.14-3.87 3.2-4.08-3.4v-39.22ZM634.12 110.42l-7.39-9.16-9.35 7.73 7.38 9.16 9.36-7.73zM635.73 166.19l-4.07-3.4v-39.27l6.91-5.7-2.04-2.2-16.62 13.7v36.43l10.4 8.69 11.28-9.31-1.98-2.13-3.88 3.19zM779.62 110.42l-7.38-9.16-9.36 7.73 7.39 9.16 9.35-7.73zM781.23 166.19l-4.07-3.4v-39.27l6.91-5.7-2.04-2.2-16.62 13.7v36.43l10.41 8.69 11.27-9.31-1.98-2.13-3.88 3.19zM297.17 166.16l-4.11-3.44v-39.6l-9-9.3c-.07.05-7.11 5.06-11.56 7.62-2.47 1.42-7.63 3.53-11.33 2.44l-.19-.08a3.57 3.57 0 1 0-6-2.62 3.66 3.66 0 0 0 .41 1.65 7.86 7.86 0 0 0 4.91 3.93 10.87 10.87 0 0 0 3.09.41 22.78 22.78 0 0 0 10.58-3.13c.68-.39 1.41-.83 2.16-1.3l5.15 5.35v7.78a35.14 35.14 0 0 0-7.13 1 29.86 29.86 0 0 0-5.2 1.79 20.7 20.7 0 0 0-5.31 3.73 26 26 0 0 0-4.23 5.17 19.63 19.63 0 0 0-2.52 5.92 13.43 13.43 0 0 0-.37 3c0 8.85 6.63 14.07 14.58 17.39h2l9-7.5 9.58 8 11.28-9.31-2-2.14Zm-15.83-2.88-.9.75h-.15c-7.16.07-13-5.25-13-11.74a12 12 0 0 1 4.73-9.2 13.33 13.33 0 0 1 3.31-1.91 15.31 15.31 0 0 1 6-1ZM445.66 71.6l-4.3 3.55-3.65-3.05V3.24h-.84l-10.15 4.52a37.31 37.31 0 0 0-3.34-1.85A35.53 35.53 0 0 0 411.6 2.6a32.94 32.94 0 0 0-14.76 1.82 32 32 0 0 0-12.39 8 28.54 28.54 0 0 0-5.3 7.54 25.83 25.83 0 0 0-2.38 8.54 25.32 25.32 0 0 0 2 12.77 46 46 0 0 0 8.62 12.66l1.95-2.24a30.49 30.49 0 0 1-6.67-9.29 20.13 20.13 0 0 1-1.85-10.4 20.44 20.44 0 0 1 8.41-14.82 23.84 23.84 0 0 1 17.44-4.58 27.53 27.53 0 0 1 6.38 1.45 30.26 30.26 0 0 1 2.82 1.14l-31.33 57.46a29.38 29.38 0 0 0-14.2 9.81l2.39 2.07a24.26 24.26 0 0 1 26.62-6.19 28.35 28.35 0 0 1 2.87 1.31l11-9.16-2.27-1.82-6 5a29.19 29.19 0 0 0-11.5-2.36 28.65 28.65 0 0 0-4.18.31l8.55-15.5h26.49v18.44l-5.14 4.23 2 2.19 5.5-4.59 8.89 7.46 12.17-10.05Zm-21.48-24.3h-21.64l16.72-30.29h.07a9.43 9.43 0 0 1 4.84 7.6ZM158.78 166.16l-4.1-3.44v-39.6l-8.74-9.06-12.3 10.11 1.86 2.25 3.26-2.69 4.16 4.32v36.43q-3.62-1.75-6.79-3.15c-2.11-.93-4.15-1.73-6.1-2.42V127.2a15.23 15.23 0 0 0-1.79-7.76 12.43 12.43 0 0 0-3.19-3.58 16.1 16.1 0 0 0-1.51-1.06l-12.7 10.47 2 2.16 3.43-2.84a6.11 6.11 0 0 1 1.79 2.24 7.43 7.43 0 0 1 .57 3.1v35.67a28.41 28.41 0 0 1 8.53 2.79 70.07 70.07 0 0 1 10.25 6.3 34.7 34.7 0 0 1 7.71-6.36l.52-.28 7.69 6.42 2.75-2.27 8.53-7-2-2.14ZM723.39 166.16l-4.11-3.44v-39.6l-8.74-9.06-12.3 10.11 1.87 2.25 3.26-2.69 4.16 4.32v36.43q-3.62-1.75-6.79-3.15c-2.11-.93-4.15-1.73-6.1-2.42V127.2a15.34 15.34 0 0 0-1.79-7.76 12.43 12.43 0 0 0-3.19-3.58 16.1 16.1 0 0 0-1.51-1.06l-12.7 10.47 2 2.16 3.43-2.84a6.21 6.21 0 0 1 1.79 2.24 7.43 7.43 0 0 1 .57 3.1v35.67a28.41 28.41 0 0 1 8.53 2.79 70.07 70.07 0 0 1 10.25 6.3 34.7 34.7 0 0 1 7.71-6.36l.52-.28 7.69 6.42 2.75-2.27 8.52-7-2-2.14Z" class="cls-3"/><path d="m248.59 166.16-4.11-3.44v-39.6l-8.73-9.06-15.87 13.08a15.2 15.2 0 0 0-1.79-7.7 12.54 12.54 0 0 0-3.18-3.58 17.71 17.71 0 0 0-1.52-1.06l-12.7 10.47 2 2.16 3.43-2.84a6.11 6.11 0 0 1 1.79 2.24 7.59 7.59 0 0 1 .58 3.1v32.31l-3.52 3.82 9.22 8.6 8.91-8.6-3.22-4.19v-30.93l8.7-7.19 4.18 4.34v37.68l10.38 8.67 11.27-9.31-2-2.14ZM531.82 166.16l-4.1-3.44v-39.6l-8.74-9.06-15.86 13.08a15.31 15.31 0 0 0-1.79-7.7 12.58 12.58 0 0 0-3.19-3.58 17.52 17.52 0 0 0-1.51-1.06l-12.7 10.47 2 2.16 3.43-2.84a6.18 6.18 0 0 1 1.78 2.24 7.43 7.43 0 0 1 .58 3.1v32.31l-3.51 3.82 9.21 8.6 8.91-8.6-3.21-4.19v-30.93l8.7-7.19 4.18 4.34v37.68l10.37 8.67 11.28-9.31-2-2.14ZM888.99 162.99l-3.84 3.17-4.11-3.44v-39.6l-8.73-9.06-15.87 13.08a15.31 15.31 0 0 0-1.78-7.7 12.58 12.58 0 0 0-3.19-3.58c-.47-.37-1-.72-1.51-1.06l-12.7 10.47 2 2.16 3.42-2.84a6.11 6.11 0 0 1 1.79 2.24 7.43 7.43 0 0 1 .58 3.1v32.31l-3.51 3.82 9.22 8.6 8.91-8.6-3.21-4.19v-30.93l8.69-7.19 4.18 4.34v37.68l10.38 8.67 11.27-9.31ZM277.76 22.31v46.78l-2.74 2.74 10.25 8.57 7-7-3.07-2.57v-30.8l8.91-7.21 4 4.14V68.6c0 10.24-1.27 12.81-4 15.76s-6.35 5.6-16.37 8.22l.24 1.33c9 0 18-1.37 23.34-6s8.07-8.24 8.07-18v-37.6l-8.41-8.72-15.78 12.92V3.24h-.72l-14.94 11.99v1c2.13 0 4.25.39 4.25 6.08M577.72 39.6l8.69-7.19 4.18 4.33v37.69l10.38 8.67 11.27-9.31-2-2.14-3.84 3.17-4.11-3.44v-39.6l-8.75-9.08-15.87 13.08a15.31 15.31 0 0 0-1.78-7.7 12.73 12.73 0 0 0-3.19-3.58 17.71 17.71 0 0 0-1.52-1.06l-12.64 10.47 2 2.15 3.42-2.83a6.11 6.11 0 0 1 1.79 2.24 7.4 7.4 0 0 1 .58 3.1v32.31l-3.52 3.82 9.22 8.6 8.91-8.6-3.21-4.19V39.6ZM488.04 22.31v52l10.4 8.73 11.28-9.31-2-2.14-3.85 3.18-4.1-3.43V3.24h-.74l-15.39 12v1c2.2 0 4.38.39 4.38 6.08M576.26 114.02a3.57 3.57 0 0 0-1.36 6.87c-.5.27-1 .53-1.52.75a11.81 11.81 0 0 1-7.14.8 12.47 12.47 0 0 1-5.9-3.21 20.48 20.48 0 0 1-4.17-5.55l-14.91 13.29v18.51l9.29 7.77 9.64-8.05 5.08 4.25v13.15c-.66-.3-1.32-.58-2-.82a22.2 22.2 0 0 0-9.93-1.26 18.84 18.84 0 0 0-8.9 3.39 20 20 0 0 0-3.17 2.82c-.26.28-1 1.1-1.25 1.39l1.24 1a16.29 16.29 0 0 1 12.74-2.78 18.4 18.4 0 0 1 11.28 8.16l12.53-11.17v-20.57l-9.27-7.76-9.64 8-5.08-4.25v-13.47c.69.4 1.4.77 2.12 1.1a19.57 19.57 0 0 0 10.19 1.87 16.46 16.46 0 0 0 8.07-3.14 23.35 23.35 0 0 0 3.32-3 9.42 9.42 0 0 0 2.18-3.46 3.57 3.57 0 0 0-3.41-4.59M61.82 99.45l-9.91 7.24c-5.52 3.9-10.08 9.1-10.08 16.6v40.69a38.75 38.75 0 0 1-5.38 5.19v-61.32h1.66a10.61 10.61 0 0 0 8.41-3.5q3.08-3.5 3.42-9.83l-.61-.19a10.65 10.65 0 0 1-2.62 3.82 5.23 5.23 0 0 1-3.42 1.12 34.36 34.36 0 0 1-8.46-1.68c-4.55-1.34-9.43-2.8-14.2-2.8q-7.94 0-12.66 4.58t-5.74 13.31h.68a18.7 18.7 0 0 1 5.13-6.75 11.73 11.73 0 0 1 6.74-2 34.2 34.2 0 0 1 7.58 1.06c3.52.77 7.69 1.65 11.25 2.53v21.24c-6 1.4-10.93 5.33-11.36 14l1.15.21c4-4.29 6.28-5.28 10.21-5.38v33.55c-5.76 3.53-13.11 3.91-19.48 2-4.83-1.49-9.43-4.38-12.16-8.72a12.15 12.15 0 0 1-.88-1.77l-1.09.29c1.15 6.32 6.33 11.33 11.67 14.45a31.59 31.59 0 0 0 16.43 4.62c7.14-.16 13.33-3.22 18.79-7.63 3-2.41 6-5.44 8.75-8.14v-49.35c0-7.7.71-12.21 7.08-16.41Z" class="cls-3"/></g></svg>