<svg  xmlns="http://www.w3.org/2000/svg" viewBox="0 0 476 72"><g fill="#004E87" fill-rule="evenodd"><path d="M475.185 30.933c-5.238 3.203-11.462 7.328-16.218 10.75v8.865l7.732 4.275 4.275-4.4.566.502-9.995 10.312-13.833-8.426v-.188c1.375-.388 2.14-1.259 2.14-4.402V28.732c5.593-2.514 11.503-6.663 15.778-9.87l9.555 12.071Zm-8.421 4.34c-1.301-1.837-5.496-8.026-7.295-10.877l-.502.312v15.78l7.797-5.216ZM446.77 53.126l-7.922 8.11c-5.092-1.635-7.042-4.59-7.042-9.18V28.543l-4.213-3.016-3.71 3.834V53.63l2.957 1.884-6.603 5.723-7.418-6.163v-.187c1.574-.755 1.95-1.54 1.95-4.403V29.613c0-2.327-1.195-4.024-3.332-4.275l-2.389 2.452-.63-.63 8.048-8.234c4.715 1.193 7.418 4.285 7.418 9.051l8.677-9.051c2.892 2.137 7.063 5.097 10.185 6.978v.19c-1.32.5-1.761 1.507-1.761 4.148v19.867c0 2.739.936 3.835 2.957 4.778l2.262-2.327.565.566M410.243 53.187l-7.734 8.05c-3.835-.694-7.168-4.339-7.168-8.236l-9.178 8.236c-3.592-2.467-6.842-4.72-9.935-6.54v-.19c1.683-.906 2.012-1.406 2.012-4.589v-20.62c0-2.185-1.067-3.394-2.829-4.024l-2.2 2.265-.627-.568 7.732-8.045c3.835 1.318 7.041 4.276 7.041 9.051v24.079l4.34 2.956 3.58-3.269V26.531l-2.639-1.823 6.35-5.782 7.357 5.971v.126c-1.395.648-1.887 1.382-1.887 3.96v20.434c0 3.206.44 4.4 3.083 5.47l2.073-2.264.63.564M371.514 26.846c-1.541.64-1.887 1.804-1.887 3.835v20.873c-3.787 1.621-12.258 6.23-16.533 9.683-3.037-2.113-7.858-5.425-11.757-7.732v-.192c1.698-.69 2.076-1.652 2.076-5.092V7.797c0-2.829-.504-4.275-1.131-5.406l.374-.19c1.323 1.132 2.2 2.452 2.58 4.275h.123C347.385 3.1 349.905.94 354.791.315l.064.376c-1.36 1.669-2.327 3.178-2.327 6.415V27.16l7.794-8.234c2.71 1.964 8.189 5.881 11.192 7.733v.187ZM360.45 55.328V28.922l-5.093-3.459-2.829 2.893v22.382l6.978 5.09.944-.5ZM334.107 7.607l-5.468 5.596-5.598-5.342 5.598-5.974 5.468 5.72M340.017 52.875l-8.048 8.362c-4.526-1.571-7.103-3.772-7.103-9.432V27.16l-2.453-1.76-2.264 2.326-.564-.566 7.858-8.173 8.36 5.534v.126c-1.287.78-1.886 1.326-1.886 3.205v22.947c0 1.848 1.162 3.68 3.143 3.962l2.39-2.452.567.566"/><path d="M320.402 21.565c-.44 3.143-2.829 7.357-6.98 7.357-2.66 0-4.59-1.51-5.657-3.208l-.692.691c.034.36.063 1.128.063 1.51v23.01l6.915 3.898 2.325-2.389.63.567-8.173 8.298-12.574-7.986v-.187c1.446-.63 1.886-1.457 1.886-3.647V30.303c0-3.204-.69-4.65-3.268-5.154l-2.452 2.515-.63-.565 7.984-8.173c3.907 1.055 6.414 3.33 7.106 6.537l6.16-6.476c1.196 1.572 2.64 2.767 4.337 2.767 1.131 0 1.95-.19 2.767-.565l.253.376"/><path d="M296.659 1.76c-.896 6.952-3.753 13.141-11.128 13.141-.88 0-2.2-.126-2.766-.188v41.241c4.464-.626 9.598-2.791 11.756-4.525l.315.816c-3.364 4.823-12.643 12.197-24.137 12.197-14.536 0-25.776-9.568-25.776-25.021 0-13.318 10.992-22.921 18.168-25.463l.628.25c-5.007 4.562-8.55 10.782-8.55 20.56 0 8.163 3.144 13.266 7.985 17.226l2.704-1.382V25.589c0-2.703-.88-3.584-1.885-3.773v-.251l12.126-6.412v31.31l-12.19 6.16c3.268 2.514 8.488 3.835 13.449 3.835 1.705 0 2.491-.082 4.4-.379V14.713c-9.047-.755-18.686-4.59-26.084-4.59-5.196 0-9.118 2.135-9.118 6.1 0 2.39 1.88 3.418 3.083 3.96l-1.007.565c-2.205-1.004-4.968-3.402-4.968-8.487 0-7.404 5.96-12.261 13.958-12.261 11.067 0 21.46 5.848 31.242 5.848 3.014 0 5.811-1.598 7.228-4.527l.567.44M229.285 26.673c-1.257.565-1.948 1.319-1.948 4.336v20.309c-3.733 1.629-12.197 6.4-16.471 9.806-4.59-3.08-6.98-4.777-11.693-7.733v-.187c1.318-.63 1.948-1.321 1.948-4.464V28.62c5.72-2.766 11.943-6.664 16.346-9.87 2.797 1.864 8.613 5.658 11.818 7.734v.189Zm-11.127 28.543v-26.03c-2.129-1.318-5.595-3.96-7.042-5.03l-.88.505v26.153c1.07.754 4.653 3.207 6.853 4.904l1.07-.502ZM196.406 58.108c0 2.444-3.43 5.028-7.168 8.045-4.893 3.954-7.42 5.847-7.42 5.847-2.42-1.365-3.821-1.759-7.418-1.759-4.533 0-7.103.472-10.31 1.759l-.189-.062c2.581-4.807 7.708-8.802 14.9-8.802 3.206 0 6.834 1.329 9.179 2.892.623-.39 2.577-1.861 2.577-2.953 0-3.21-6.036-2.832-6.914-8.803l-6.727 6.852c-7.885-5.12-12.386-7.92-12.386-7.92v-.253c1.553-.661 1.949-1.447 1.949-5.344V28.62c6.652-3.508 12.811-7.017 16.535-9.87l11.693 7.733v.189c-1.447.753-1.948 1.382-1.948 4.84v17.98c0 4.301 3.647 4.704 3.647 8.615Zm-12.89-4.968V28.935c-3.522-2.173-6.978-4.903-6.978-4.903l-.943.565V50.5l6.349 4.338 1.572-1.697ZM162.833 52.95l-7.986 8.112c-3.637-1.203-6.696-3.108-6.977-8.173l-8.991 8.173c-4.4-1.886-7.544-5.86-7.544-10.876 0-6.733 5.432-10.21 10.435-12.01v-.063c-4.303-2.086-7.832-6.04-8.8-10.813l13.83-8.55 12.386 8.3v.188c-1.508.63-2.138 1.383-2.138 4.211v18.422c0 2.065.863 4.267 2.954 4.841l2.265-2.327.566.566ZM147.87 36.73v-7.48l-7.797-5.344-1.005.63c.313 4.431.927 10.23 3.897 13.2 1.082-.37 3.606-.857 4.905-1.006Zm0 14.963V37.547c-5.475.646-8.55 4.522-8.55 9.368 0 4.023 1.446 6.476 5.091 7.922l3.459-3.144ZM133.095 21.014c-.291 3.79-3.193 7.607-7.23 7.607-3.76 0-6.085-2.29-7.355-4.968l-.503.317v26.216l7.354 4.4 4.026-4.15.628.567-9.62 9.996-13.391-8.11v-.251c1.384-.442 1.95-1.824 1.95-4.026V28.306c5.658-2.953 11.794-6.782 15.527-9.493.73 1.201 2.396 2.703 4.527 2.703 1.767 0 3.15-.402 3.836-.879l.25.377M99.963 7.435l-5.469 5.595-5.595-5.345 5.595-5.973 5.469 5.723M105.873 52.7l-8.048 8.362c-4.526-1.571-7.104-3.772-7.104-9.432V26.985l-2.452-1.758-2.263 2.324-.565-.566 7.858-8.172 8.362 5.533v.125c-1.29.78-1.886 1.446-1.886 4.15v22.003c0 1.847 1.16 3.68 3.142 3.962l2.39-2.452.566.566M87.138 52.95l-7.984 8.112c-4.214-1.257-6.978-3.916-6.978-9.117V28.747l-5.093-3.459-2.83 2.957v25.272l2.956 1.824-6.602 5.721-7.482-6.225v-.125c1.243-.344 2.012-1.385 2.012-4.339V7.371c0-3.144-.566-4.086-1.194-5.155l.44-.19c1.378 1.204 2.24 2.212 2.577 4.338h.126C59.11 2.987 61.629.765 66.516.14l.126.253c-1.36 1.664-2.389 3.483-2.389 6.287v20.37l7.796-8.237c2.839 1.935 8.138 5.792 11.253 7.671v.189c-1.094.467-1.948 1.319-1.948 4.086v19.049c0 2.787.692 3.772 2.955 4.904l2.262-2.327.567.566M52.622 2.09c-.233 5.472-4.086 10.561-10.94 10.561-.87 0-1.661-.072-2.388-.25v43.252c4.404-.558 8.39-2.454 12.07-5.03l.314.945C47.608 56.314 39.922 64.08 28.04 64.08 11.872 64.08 0 53.1 0 34.342 0 17.14 14.193 7.597 23.388 4.038l.753.379c-8.67 5.756-13.327 12.712-13.327 24.834 0 10.688 3.835 18.294 9.619 22.757l1.949-1.32V17.493c0-3.043-.44-4.086-1.886-4.463v-.253C26.279 9.885 35.458 4.918 40.551.895c1.57 1.835 3.528 2.642 5.972 2.642 2.67 0 4.464-.945 5.658-1.825l.44.379ZM38.288 55.783V12.086c-2.292-.875-3.895-2.671-5.344-4.779l-.314.128v37.593l-11.443 7.61c3.918 2.712 9.626 3.205 15.466 3.205.551 0 1.096-.02 1.635-.061Z"/></g></svg>