<svg xmlns="http://www.w3.org/2000/svg" version="1.0" viewBox="0 0 577.899 126.014"><path d="M-232.653 47.22h55.597V35.694l-55.597 11.528" style="opacity:1;fill:#006ba1;fill-rule:nonzero;stroke:none" transform="translate(654.664 -35.07)"/><path d="M-96.54 92.786h11.173V53.22h-9.001l-5.121 7.85c-7.759-5.495-17.692-10.992-29.487-10.992-18.777 0-38.486 9.422-38.486 31.56 0 44.908 69.215 24.65 69.215 51.502 0 7.537-6.519 13.975-20.176 13.975-22.036 0-34.761-11.307-36.934-32.345h-11.484v42.55h10.553l3.414-9.264c9.002 7.379 20.64 12.404 32.278 12.404 21.728 0 40.97-8.165 40.97-33.13 0-43.808-69.213-26.222-69.213-49.774 0-10.363 5.898-14.13 20.33-14.13 18.466 0 28.245 12.246 31.97 29.36m-126.945 64.534h46.246V145.7h-8.999c-5.277 0-7.605-2.67-7.605-7.693V72.375c0-5.967 4.81-7.537 9.776-7.537h6.828V53.22h-54.938v11.618h8.692c6.052 0 7.915 3.14 7.915 7.065v68.145c0 3.988-2.429 5.552-8.472 5.624-7.878-.056-13.015-1.254-15.738-8.45l-31.037-84.002h-21.727l-29.641 84.002c-2.639 7.38-8.07 8.479-16.295 8.479v11.619h48.42V145.7h-12.105c-2.949 0-4.968-.628-4.968-2.824 0-1.414.313-2.358.623-3.299l5.12-15.701h35.228l5.12 15.701c.312.941.623 2.355.623 3.769 0 1.571-1.241 2.355-4.813 2.355h-12.258v11.619h54.005zm-47.178-45.063h-26.225l12.414-37.841h.31l13.501 37.841zm-48.265-30.461c0-17.743-13.345-28.576-36.625-28.576h-60.834v11.618h9.933c3.57 0 6.674 1.257 6.674 5.34v70.184c0 4.084-3.104 5.339-6.674 5.339h-9.933v11.619h55.714V145.7h-9.931c-3.57 0-7.45-1.254-7.45-5.338v-30.146h24.365c20.795 0 34.761-9.108 34.761-28.42m-22.656.156c0 12.091-7.761 16.644-22.349 16.644h-14.121V64.838h14.121c16.141 0 22.349 5.024 22.349 17.114m-202.675 75.368h96.992v-44.75h-11.482c-1.398 24.337-5.276 33.287-21.261 33.287h-25.297V71.903c0-5.495 2.328-7.065 9.157-7.065h8.69V53.22h-56.799v11.618h9.001c6.208 0 8.225 2.042 8.225 6.752v67.202c0 5.339-2.95 6.909-7.295 6.909h-9.931v11.619zm-107.545 0h102.426v-43.964h-11.485c-1.396 23.395-6.984 32.345-21.261 32.345h-31.038v-36.585h8.225c9.312 0 13.502 4.867 13.502 17.587v3.767h11.483V78.027h-11.483v2.041c0 12.718-4.19 17.43-13.502 17.43h-8.225v-32.66h27.313c20.796 0 22.657 8.48 24.986 29.833h11.485V53.22h-102.426v11.618h6.984c8.068 0 9.932 2.042 9.932 8.793v61.079c0 9.42-2.95 10.99-8.226 10.99h-8.69v11.62" style="opacity:1;fill:#211e1e;fill-rule:nonzero;stroke:none" transform="translate(654.664 -35.07)"/></svg>