<svg xmlns="http://www.w3.org/2000/svg" width="242" height="57" viewBox="0 0 242 57"><g fill="none"><path fill="#F68E1E" d="M5.7,17.9 C4,17.9 2.5,17.2 1.4,16.2 L1.4,55.6 L10,55.6 L10,16.2 C8.9,17.2 7.4,17.9 5.7,17.9 Z"/><ellipse cx="5.7" cy="8.6" fill="#F68E1E" rx="4.8" ry="4.9"/><path fill="#F68E1E" d="M17.1 15.9 25.3 15.9 25.3 21.7 25.5 21.9C26.8 19.7 28.5 18 30.6 16.7 32.7 15.4 35.1 14.8 37.6 14.8 41.9 14.8 45.3 15.9 47.7 18.2 50.2 20.4 51.4 23.8 51.4 28.3L51.4 55.5 42.8 55.5 42.8 30.6C42.7 27.5 42 25.2 40.8 23.8 39.6 22.4 37.7 21.7 35.1 21.7 33.6 21.7 32.3 22 31.2 22.5 30 23 29.1 23.8 28.3 24.7 27.5 25.6 26.9 26.8 26.4 28 25.9 29.3 25.7 30.6 25.7 32.1L25.7 55.5 17.1 55.5C17.1 55.5 17.1 15.9 17.1 15.9ZM54.2 15.9 60.6 15.9 60.6 12.6C60.6 10.1 60.9 8.1 61.5 6.5 62.1 4.9 62.9 3.7 63.9 2.9 64.9 2.1 66.1 1.5 67.3 1.2 68.6.9 69.9.8 71.3.8 74.1.8 76.1 1 77.3 1.3L77.3 8.1C76.7 7.9 76.2 7.8 75.5 7.8 75.1 7.8 74.3 7.7 73.5 7.7 72.3 7.7 71.3 8 70.5 8.5 69.7 9.1 69.3 10.2 69.3 11.8L69.3 15.9 76.6 15.9 76.6 22.4 69.3 22.4 69.3 55.5 60.7 55.5 60.7 22.4 54.3 22.4 54.2 15.9 54.2 15.9ZM97.4 56.6C94.3 56.6 91.5 56.1 89.1 55 86.7 54 84.6 52.5 82.9 50.7 81.2 48.9 79.9 46.7 79 44.1 78.1 41.5 77.7 38.7 77.7 35.7 77.7 32.7 78.1 29.9 79 27.3 79.9 24.7 81.2 22.5 82.9 20.7 84.6 18.9 86.6 17.4 89.1 16.4 91.5 15.4 94.3 14.8 97.4 14.8 100.5 14.8 103.3 15.3 105.7 16.4 108.1 17.4 110.2 18.9 111.9 20.7 113.6 22.5 114.9 24.7 115.8 27.3 116.7 29.9 117.1 32.6 117.1 35.7 117.1 38.8 116.7 41.6 115.8 44.1 114.9 46.7 113.6 48.9 111.9 50.7 110.2 52.5 108.1 54 105.7 55 103.3 56.1 100.5 56.6 97.4 56.6Z"/><path fill="#FFF" d="M97.4,49.7 C99.3,49.7 101,49.3 102.4,48.5 C103.8,47.7 105,46.6 105.9,45.3 C106.8,44 107.5,42.5 107.9,40.8 C108.3,39.1 108.5,37.4 108.5,35.7 C108.5,34 108.3,32.3 107.9,30.6 C107.5,28.9 106.8,27.4 105.9,26.1 C105,24.8 103.8,23.7 102.4,22.9 C101,22.1 99.3,21.7 97.4,21.7 C95.5,21.7 93.8,22.1 92.4,22.9 C91,23.7 89.8,24.8 88.9,26.1 C88,27.4 87.3,28.9 86.9,30.6 C86.5,32.3 86.3,34 86.3,35.7 C86.3,37.4 86.5,39.1 86.9,40.8 C87.3,42.5 88,44 88.9,45.3 C89.8,46.6 91,47.7 92.4,48.5 C93.8,49.3 95.5,49.7 97.4,49.7 Z"/><path fill="#F68E1E" d="M122.2,0.8 L130.8,0.8 L130.8,21 L131,21 C131.6,20 132.3,19.2 133.2,18.4 C134.1,17.6 135,17 136,16.4 C137,15.9 138.1,15.5 139.2,15.2 C140.3,14.9 141.5,14.8 142.6,14.8 C145.7,14.8 148.3,15.3 150.6,16.4 C152.9,17.5 154.8,19 156.3,20.9 C157.8,22.8 158.9,25.1 159.7,27.6 C160.5,30.2 160.8,32.9 160.8,35.8 C160.8,38.5 160.5,41 159.8,43.5 C159.1,46 158.1,48.2 156.7,50.1 C155.3,52 153.6,53.6 151.5,54.7 C149.4,55.9 146.9,56.4 144,56.4 C142.7,56.4 141.4,56.3 140,56.1 C138.7,55.9 137.4,55.6 136.2,55.1 C135,54.6 133.9,53.9 132.9,53.1 C131.9,52.3 131.1,51.2 130.4,49.9 L130.3,49.9 L130.3,55.3 L122.1,55.3 L122.2,0.8 L122.2,0.8 Z"/><path fill="#FFF" d="M152.2,35.8 C152.2,34 152,32.3 151.5,30.6 C151,28.9 150.4,27.4 149.5,26.1 C148.6,24.8 147.5,23.7 146.1,23 C144.7,22.2 143.2,21.8 141.4,21.8 C137.8,21.8 135,23.1 133.2,25.6 C131.4,28.2 130.4,31.6 130.4,35.8 C130.4,37.8 130.6,39.6 131.1,41.4 C131.6,43.1 132.3,44.6 133.3,45.8 C134.3,47 135.4,48 136.7,48.7 C138,49.4 139.6,49.8 141.3,49.8 C143.3,49.8 144.9,49.4 146.3,48.6 C147.7,47.8 148.8,46.7 149.7,45.4 C150.6,44.1 151.2,42.6 151.6,41 C152,39.2 152.2,37.5 152.2,35.8 Z"/><path fill="#F68E1E" d="M198.4,46.7 C198.4,47.8 198.5,48.5 198.8,49 C199.1,49.5 199.6,49.7 200.4,49.7 C200.7,49.7 201,49.7 201.3,49.7 C201.7,49.7 202.1,49.6 202.5,49.5 L202.5,55.6 C202.2,55.7 201.8,55.8 201.3,55.9 C200.8,56 200.3,56.1 199.8,56.2 C199.3,56.3 198.8,56.4 198.3,56.4 C197.8,56.5 197.4,56.5 197,56.5 C195.2,56.5 193.8,56.1 192.6,55.4 C191.4,54.7 190.7,53.4 190.3,51.6 C188.6,53.3 186.5,54.5 184,55.3 C181.5,56.1 179.1,56.4 176.8,56.4 C175,56.4 173.4,56.2 171.7,55.7 C170.1,55.2 168.7,54.5 167.4,53.6 C166.2,52.7 165.2,51.5 164.5,50 C163.8,48.5 163.4,46.8 163.4,44.9 C163.4,42.4 163.8,40.5 164.7,38.9 C165.6,37.4 166.7,36.2 168.2,35.3 C169.6,34.4 171.2,33.8 173,33.4 C174.8,33 176.6,32.7 178.4,32.5 C180,32.2 181.4,32 182.9,31.8 C184.3,31.7 185.6,31.5 186.6,31.1 C187.7,30.8 188.5,30.3 189.2,29.7 C189.8,29.1 190.1,28.1 190.1,26.8 C190.1,25.7 189.8,24.8 189.3,24 C188.8,23.3 188.1,22.7 187.3,22.4 C186.5,22 185.7,21.8 184.7,21.6 C183.7,21.5 182.8,21.4 182,21.4 C179.6,21.4 177.6,21.9 176,22.9 C174.4,23.9 173.6,25.5 173.4,27.7 L164.8,27.7 C165,25.1 165.6,23 166.6,21.3 C167.7,19.6 169,18.3 170.6,17.2 C172.2,16.2 174.1,15.5 176.2,15.1 C178.3,14.7 180.4,14.5 182.5,14.5 C184.4,14.5 186.3,14.7 188.2,15.1 C190.1,15.5 191.7,16.2 193.2,17.1 C194.7,18 195.9,19.2 196.8,20.7 C197.7,22.2 198.2,23.9 198.2,26 L198.2,46.7 L198.4,46.7 Z"/><path fill="#FFF" d="M189.8,35.7 C188.5,36.6 186.9,37.1 185,37.3 C183.1,37.5 181.2,37.7 179.3,38.1 C178.4,38.3 177.5,38.5 176.7,38.8 C175.8,39.1 175.1,39.5 174.4,40 C173.7,40.5 173.2,41.1 172.9,41.9 C172.5,42.7 172.3,43.7 172.3,44.8 C172.3,45.8 172.6,46.6 173.1,47.3 C173.7,48 174.3,48.5 175.1,48.9 C175.9,49.3 176.7,49.6 177.7,49.7 C178.6,49.9 179.5,49.9 180.2,49.9 C181.2,49.9 182.2,49.8 183.3,49.5 C184.4,49.2 185.5,48.8 186.4,48.2 C187.4,47.6 188.2,46.8 188.9,45.9 C189.6,45 189.9,43.8 189.9,42.4 L189.9,35.7 L189.8,35.7 L189.8,35.7 Z"/><path fill="#F68E1E" d="M212.1,38 C212.1,39.5 212.3,41 212.7,42.4 C213.1,43.8 213.8,45.1 214.6,46.2 C215.5,47.3 216.5,48.1 217.8,48.8 C219.1,49.4 220.7,49.8 222.5,49.8 C225,49.8 227,49.3 228.6,48.2 C230.1,47.1 231.3,45.5 232,43.3 L240.2,43.3 C239.7,45.4 239,47.4 237.9,49.1 C236.8,50.8 235.5,52.2 233.9,53.4 C232.3,54.5 230.6,55.4 228.7,56 C226.8,56.6 224.7,56.9 222.6,56.9 C219.5,56.9 216.8,56.4 214.4,55.4 C212,54.4 210,52.9 208.4,51.1 C206.8,49.3 205.5,47.1 204.7,44.5 C203.9,41.9 203.5,39.1 203.5,36.1 C203.5,33.3 203.9,30.6 204.8,28.1 C205.7,25.6 206.9,23.3 208.6,21.4 C210.2,19.5 212.2,18 214.5,16.8 C216.8,15.7 219.4,15.1 222.4,15.1 C225.5,15.1 228.2,15.8 230.7,17.1 C233.1,18.4 235.2,20.1 236.8,22.3 C238.4,24.4 239.6,26.9 240.3,29.7 C241,32.5 241.2,35.4 240.9,38.3 L212.1,38.3 L212.1,38 L212.1,38 Z"/><path fill="#FFF" d="M232.2,32.2 C232.1,30.8 231.8,29.5 231.3,28.2 C230.8,26.9 230.2,25.8 229.3,24.9 C228.5,24 227.5,23.2 226.3,22.6 C225.1,22 223.8,21.7 222.3,21.7 C220.8,21.7 219.4,22 218.2,22.5 C217,23 215.9,23.8 215,24.7 C214.1,25.6 213.4,26.8 212.9,28 C212.4,29.3 212.1,30.7 212,32.1 L232.2,32.2 L232.2,32.2 Z"/></g></svg>