<svg xmlns="http://www.w3.org/2000/svg" viewBox="0 0 735 76"><g fill="#279655" fill-rule="nonzero"><path d="M133.8 51.7h-.3L116 25.9v39h-5.3V16.7h5.5L133.8 43l17.6-26.3h5.5v48.2h-5.4v-39zM185.3 61.1c4.9 0 8.3-2 11.2-5l3.3 3c-3.6 4-7.9 6.7-14.7 6.7-9.8 0-17.8-7.5-17.8-18.6 0-10.3 7.2-18.6 17.1-18.6C195 28.6 201 37 201 47.4c0 .5 0 1-.1 1.7h-28.2c.8 7.7 6.3 12 12.6 12Zm10.4-15.9c-.6-6.5-4.3-12.1-11.4-12.1-6.2 0-10.9 5.2-11.6 12.1h23ZM217.5 54.8c0 4.3 2.4 5.9 6 5.9 1.8 0 3.3-.3 5.2-1.2V64c-1.9 1-3.9 1.5-6.4 1.5-5.7 0-10.1-2.8-10.1-10.1V34h-5v-4.7h5V18.6h5.3v10.7h11.3V34h-11.3v20.8ZM243.5 64.9h-5.3V29.3h5.3v9.3c2.6-5.9 7.8-10.2 14.5-9.9v5.7h-.4c-7.8 0-14.1 5.6-14.1 16.3v14.2ZM280.8 65.7c-10.7 0-18.5-8.4-18.5-18.5s7.8-18.7 18.6-18.7c10.7 0 18.5 8.4 18.5 18.5s-7.9 18.7-18.6 18.7Zm0-32.5c-7.7 0-13 6.1-13 13.8 0 7.7 5.6 14 13.1 14 7.7 0 13.1-6.1 13.1-13.8 0-7.8-5.7-14-13.2-14ZM359.8 16.6h4.5l13.2 40.3 13.8-40.2h5.7l-17.2 48.5h-4.6L362 26.1l-13.3 39.1h-4.6l-17.2-48.5h5.9l13.8 40.2zM417.7 65.7c-10.7 0-18.5-8.4-18.5-18.5s7.8-18.7 18.6-18.7c10.7 0 18.5 8.4 18.5 18.5s-7.8 18.7-18.6 18.7Zm0-32.5c-7.7 0-13 6.1-13 13.8 0 7.7 5.7 14 13.2 14 7.7 0 13.1-6.1 13.1-13.8-.1-7.8-5.8-14-13.3-14ZM451.3 64.9H446V29.3h5.3v9.3c2.6-5.9 7.8-10.2 14.5-9.9v5.7h-.4c-7.8 0-14.1 5.6-14.1 16.3v14.2ZM474.3 64.9V14.6h5.3v50.3zM520.6 64.9v-7.2c-2.9 4.3-7.1 7.9-13.6 7.9-8.5 0-17-6.8-17-18.5s8.5-18.6 17-18.6c6.6 0 10.9 3.6 13.6 7.6V14.7h5.3V65l-5.3-.1Zm-12.7-31.6c-6.9 0-12.5 5.1-12.5 13.8 0 8.5 5.8 13.8 12.5 13.8 6.6 0 12.9-5.5 12.9-13.8s-6.3-13.8-12.9-13.8ZM594.7 16.7h5.3v48.2h-4.3l-31.1-39.5v39.5h-5.3V16.7h5.1l30.4 38.6zM628.5 61.1c4.9 0 8.3-2 11.2-5l3.3 3c-3.6 4-7.9 6.7-14.7 6.7-9.8 0-17.8-7.5-17.8-18.6 0-10.3 7.2-18.6 17.1-18.6 10.5 0 16.6 8.4 16.6 18.9 0 .5 0 1-.1 1.7h-28.2c.8 7.6 6.3 11.9 12.6 11.9Zm10.4-15.9c-.6-6.5-4.3-12.1-11.4-12.1-6.2 0-10.9 5.2-11.6 12.1h23ZM687.4 57.9l9.4-28.6h5.5l-12.5 35.9h-4.6l-9.6-28.1-9.6 28.1h-4.7l-12.5-35.9h5.7l9.4 28.6 9.6-28.7h4.4zM721.9 65.6c-5.1 0-10.7-2-14.7-5.2l2.7-3.8c3.8 2.9 8.1 4.5 12.3 4.5 4.3 0 7.4-2.2 7.4-5.7v-.1c0-3.6-4.2-5-8.9-6.3-5.6-1.6-11.8-3.5-11.8-10v-.1c0-6.1 5.1-10.2 12.1-10.2 4.3 0 9.2 1.5 12.8 3.9l-2.4 4c-3.3-2.1-7.1-3.4-10.5-3.4-4.2 0-6.9 2.2-6.9 5.2v.1c0 3.4 4.4 4.7 9.2 6.1 5.5 1.7 11.4 3.8 11.4 10.2v.1c-.1 6.8-5.6 10.7-12.7 10.7ZM63.9 12C49.2-2.7 25.6-2.7 11 12-3.6 26.7-3.6 50.3 11 64.9c14.6 14.6 38.3 14.6 52.9 0 14.6-14.7 14.6-38.3 0-52.9Zm-1.6 47.5c-1.8-1.6-3.6-3-5.6-4.1 1.3-4.5 2.1-9.5 2.3-14.6h11c-.5 6.9-3.2 13.4-7.7 18.7ZM4.9 40.8h11c.2 5.2.9 10.1 2.3 14.6-2 1.2-3.8 2.6-5.6 4.1C8 54.2 5.4 47.7 4.9 40.8Zm7.6-23.5c1.8 1.6 3.6 3 5.6 4.1-1.3 4.5-2.1 9.5-2.3 14.6h-11c.6-6.9 3.2-13.4 7.7-18.7ZM35 21.9c-3.9-.3-7.6-1.2-11.1-2.8 2-5.2 5.8-11.4 11.1-13v15.8Zm0 4.8V36H20.6c.2-4.3.8-8.5 1.8-12.4 4 1.8 8.2 2.8 12.6 3.1Zm0 14.1v9.3c-4.4.3-8.6 1.3-12.6 3-1-3.8-1.6-8-1.8-12.4l14.4.1Zm0 14.1v15.8c-5.4-1.5-9.1-7.8-11.1-13 3.5-1.6 7.2-2.5 11.1-2.8Zm4.8 0c3.9.3 7.6 1.2 11.1 2.8-2 5.2-5.8 11.4-11.1 13V54.9Zm0-4.8v-9.3h14.4c-.2 4.3-.8 8.5-1.8 12.4-4-1.8-8.2-2.8-12.6-3.1Zm0-14.1v-9.3c4.4-.3 8.6-1.3 12.6-3 1 3.8 1.6 8 1.8 12.4L39.8 36Zm0-14.1V6.1c5.4 1.5 9.1 7.8 11.1 13-3.5 1.6-7.2 2.5-11.1 2.8ZM50.5 8.5c3.1 1.3 5.9 3.2 8.4 5.4-1.2 1.1-2.5 2-3.8 2.9-1.2-2.9-2.7-5.8-4.6-8.3Zm-30.8 8.3c-1.3-.9-2.6-1.8-3.8-2.9 2.6-2.2 5.4-4.1 8.4-5.4-1.9 2.5-3.4 5.4-4.6 8.3Zm0 43.2c1.2 2.9 2.7 5.8 4.6 8.3-3.1-1.3-5.9-3.2-8.4-5.4 1.2-1 2.5-2 3.8-2.9Zm35.4 0c1.3.9 2.6 1.8 3.8 2.9-2.6 2.2-5.4 4.1-8.4 5.4 1.9-2.5 3.4-5.3 4.6-8.3ZM59 36c-.2-5.2-.9-10.1-2.3-14.6 2-1.2 3.8-2.6 5.6-4.1 4.5 5.3 7.2 11.8 7.7 18.7H59Z"/></g></svg>