<svg xmlns="http://www.w3.org/2000/svg" width="572" height="45" viewBox="0 0 572 45"><defs><filter id="a" width="103%" height="146.9%" x="-1.5%" y="-26.6%" filterUnits="objectBoundingBox"><feOffset dx="1" dy="1" in="SourceAlpha" result="shadowOffsetOuter1"/><feGaussianBlur in="shadowOffsetOuter1" result="shadowBlurOuter1" stdDeviation="1"/><feColorMatrix in="shadowBlurOuter1" result="shadowMatrixOuter1" values="0 0 0 0 0 0 0 0 0 0 0 0 0 0 0 0 0 0 0.3 0"/><feMerge><feMergeNode in="shadowMatrixOuter1"/><feMergeNode in="SourceGraphic"/></feMerge></filter><filter id="b"><feColorMatrix in="SourceGraphic" values="0 0 0 0 0.054902 0 0 0 0 0.647059 0 0 0 0 0.913725 0 0 0 0.500000 0"/></filter><filter id="c"><feColorMatrix in="SourceGraphic" values="0 0 0 0 0.054902 0 0 0 0 0.647059 0 0 0 0 0.913725 0 0 0 0.500000 0"/></filter></defs><g fill="none" fill-rule="evenodd" filter="url(#a)" transform="translate(7 7.5)"><g stroke-linecap="round" filter="url(#b)"><g transform="translate(0 .5)"><polyline stroke="#979797" stroke-width="3" points="0 13 6.5 6.5 13 0"/><polyline stroke="#979797" stroke-width="3" points="0 26 6.5 19.5 13 13" transform="rotate(90 6.5 19.5)"/></g></g><g stroke-linecap="round" transform="translate(525)"><g filter="url(#c)"><g transform="rotate(-180 16.5 13.25)"><polyline stroke="#979797" stroke-width="3" points="0 13 6.5 6.5 13 0"/><polyline stroke="#979797" stroke-width="3" points="0 26 6.5 19.5 13 13" transform="rotate(90 6.5 19.5)"/></g></g><line x1="13" y2="26" stroke="#0EA5E9" stroke-opacity=".5" stroke-width="3"/></g><g fill-rule="nonzero" transform="translate(22.656 .192)"><path fill="#FAFAFA" d="M8.82,25.74 C11.052,25.74 14.22,25.452 16.092,24.552 L15.696,21.744 C13.572,21.996 11.052,22.176 9.36,22.176 C6.336,22.176 5.004,21.528 4.644,18.324 L11.844,18.324 C15.12,18.324 16.56,16.452 16.56,13.284 C16.56,9.288 14.256,7.164 8.532,7.164 C2.556,7.164 0,9.468 0,16.452 C0,23.148 2.412,25.74 8.82,25.74 Z M10.62,15.264 L4.536,15.264 C4.68,11.556 5.652,10.62 8.712,10.62 C11.412,10.62 12.204,11.34 12.204,13.212 C12.204,14.148 12.024,15.264 10.62,15.264 Z M24.912,25.308 L24.912,12.816 C27.432,11.844 29.052,11.268 30.744,11.268 L32.004,11.268 L32.472,7.164 L31.608,7.164 C29.304,7.164 26.748,8.28 24.336,10.26 L23.94,7.668 L20.52,7.668 L20.52,25.308 L24.912,25.308 Z M38.7,4.5 C39.564,4.5 39.96,4.068 39.96,3.24 L39.96,1.26 C39.96,0.468 39.564,-3.55271368e-15 38.7,-3.55271368e-15 L36.684,-3.55271368e-15 C35.856,-3.55271368e-15 35.424,0.468 35.424,1.26 L35.424,3.24 C35.424,4.068 35.856,4.5 36.684,4.5 L38.7,4.5 Z M39.888,25.308 L39.888,7.668 L35.532,7.668 L35.532,25.308 L39.888,25.308 Z M52.74,25.74 C54.972,25.74 57.384,25.416 59.22,24.66 L58.824,21.78 C56.88,22.068 54.612,22.14 53.532,22.14 C49.932,22.14 48.708,20.88 48.708,16.452 C48.708,12.06 49.932,10.836 53.532,10.836 C54.828,10.836 56.664,10.836 58.428,10.908 L58.932,8.172 C57.096,7.416 54.504,7.164 52.776,7.164 C46.476,7.164 44.136,9.648 44.136,16.452 C44.136,23.292 46.44,25.74 52.74,25.74 Z M78.588,25.74 C80.82,25.74 83.232,25.416 85.068,24.66 L84.672,21.78 C82.728,22.068 80.46,22.14 79.38,22.14 C75.78,22.14 74.556,20.88 74.556,16.452 C74.556,12.06 75.78,10.836 79.38,10.836 C80.676,10.836 82.512,10.836 84.276,10.908 L84.78,8.172 C82.944,7.416 80.352,7.164 78.624,7.164 C72.324,7.164 69.984,9.648 69.984,16.452 C69.984,23.292 72.288,25.74 78.588,25.74 Z M93.384,25.704 C96.552,25.704 98.856,24.012 100.116,22.644 L100.584,25.308 L104.04,25.308 L104.04,13.32 C104.04,8.604 101.772,7.164 97.416,7.164 C95.076,7.164 91.116,7.56 88.596,8.028 L89.028,11.124 C91.8,10.908 94.788,10.764 96.408,10.764 C98.928,10.764 99.612,11.268 99.648,13.284 L99.648,14.364 L93.024,14.364 C89.712,14.364 87.804,15.984 87.804,18.792 L87.804,20.592 C87.804,23.904 90.144,25.704 93.384,25.704 Z M94.464,22.176 C92.88,22.176 92.16,21.528 92.16,20.016 L92.16,19.332 C92.16,18.144 92.592,17.424 94.032,17.352 L99.648,17.352 L99.648,20.088 C97.812,21.6 95.832,22.176 94.464,22.176 Z M113.184,25.308 L113.184,12.816 C115.704,11.844 117.324,11.268 119.016,11.268 L120.276,11.268 L120.744,7.164 L119.88,7.164 C117.576,7.164 115.02,8.28 112.608,10.26 L112.212,7.668 L108.792,7.668 L108.792,25.308 L113.184,25.308 Z M128.448,25.704 C129.456,25.704 131.4,25.488 132.192,25.092 L131.688,21.852 L130.176,21.852 C128.772,21.852 128.052,21.204 128.052,19.8 L128.088,0.108 L123.696,0.108 L123.696,20.88 C123.696,23.976 125.532,25.704 128.448,25.704 Z M138.276,4.5 C139.14,4.5 139.536,4.068 139.536,3.24 L139.536,1.26 C139.536,0.468 139.14,-3.55271368e-15 138.276,-3.55271368e-15 L136.26,-3.55271368e-15 C135.432,-3.55271368e-15 135,0.468 135,1.26 L135,3.24 C135,4.068 135.432,4.5 136.26,4.5 L138.276,4.5 Z M139.464,25.308 L139.464,7.668 L135.108,7.668 L135.108,25.308 L139.464,25.308 Z M159.192,20.484 C159.192,17.388 157.896,16.236 154.98,15.408 L150.228,14.112 C148.572,13.644 147.816,13.608 147.816,12.204 C147.816,10.728 148.608,10.692 151.56,10.692 C153.792,10.692 156.06,10.764 158.292,10.836 L158.616,7.812 C156.456,7.452 153.216,7.2 150.804,7.164 C145.62,7.164 143.604,8.28 143.604,12.168 C143.604,14.976 144.612,16.452 147.744,17.352 L152.388,18.612 C154.044,19.08 154.98,19.188 154.98,20.52 C154.98,21.8860541 154.02575,22.1956172 150.525606,22.2113525 L150.228,22.212 C147.96,22.212 145.62,22.176 144.216,22.068 L143.928,25.128 C146.894667,25.628 149.676148,25.6959012 151.015014,25.7032172 L151.308,25.704 C156.816,25.704 159.192,24.804 159.192,20.484 Z M167.904,25.704 C168.912,25.704 170.856,25.488 171.648,25.092 L171.144,21.852 L169.632,21.852 C168.228,21.852 167.508,21.204 167.508,19.8 L167.544,0.108 L163.152,0.108 L163.152,20.88 C163.152,23.976 164.988,25.704 167.904,25.704 Z M182.448,25.74 C184.68,25.74 187.848,25.452 189.72,24.552 L189.324,21.744 C187.2,21.996 184.68,22.176 182.988,22.176 C179.964,22.176 178.632,21.528 178.272,18.324 L185.472,18.324 C188.748,18.324 190.188,16.452 190.188,13.284 C190.188,9.288 187.884,7.164 182.16,7.164 C176.184,7.164 173.628,9.468 173.628,16.452 C173.628,23.148 176.04,25.74 182.448,25.74 Z M184.248,15.264 L178.164,15.264 C178.308,11.556 179.28,10.62 182.34,10.62 C185.04,10.62 185.832,11.34 185.832,13.212 C185.832,14.148 185.652,15.264 184.248,15.264 Z M204.624,14.184 C205.812,14.184 206.208,13.788 206.208,12.636 L206.208,10.8 C206.208,9.648 205.812,9.252 204.624,9.252 L203.328,9.252 C202.14,9.252 201.744,9.648 201.744,10.8 L201.744,12.636 C201.744,13.788 202.14,14.184 203.328,14.184 L204.624,14.184 Z M204.624,25.308 C205.812,25.308 206.208,24.912 206.208,23.76 L206.208,21.924 C206.208,20.772 205.812,20.376 204.624,20.376 L203.328,20.376 C202.14,20.376 201.744,20.772 201.744,21.924 L201.744,23.76 C201.744,24.912 202.14,25.308 203.328,25.308 L204.624,25.308 Z"/><path fill="#7DD3FC" d="M228.852,25.776 C235.656,25.776 238.14,23.004 238.14,15.588 L238.14,0.468 L233.604,0.468 L233.604,15.588 C233.604,20.376 232.344,21.924 228.672,21.924 C224.928,21.924 223.668,20.376 223.668,15.588 L223.668,0.468 L219.168,0.468 L219.168,15.588 C219.168,23.004 221.76,25.776 228.852,25.776 Z M248.004,25.308 L248.004,0.468 L243.504,0.468 L243.504,25.308 L248.004,25.308 Z"/><path fill="#FAFAFA" d="M255.6,30.348 C256.572,28.62 257.148,26.748 257.184,24.228 L257.148,21.924 C257.184,20.772 256.824,20.376 255.672,20.376 L254.484,20.376 C253.368,20.376 252.936,20.772 252.864,21.924 L252.864,23.94 C252.864,24.804 253.296,25.308 254.088,25.308 C254.088,27.036 253.944,28.296 253.62,29.808 L255.6,30.348 Z"/><path fill="#7DD3FC" d="M279.54,25.776 C286.344,25.776 288.828,23.004 288.828,15.588 L288.828,0.468 L284.292,0.468 L284.292,15.588 C284.292,20.376 283.032,21.924 279.36,21.924 C275.616,21.924 274.356,20.376 274.356,15.588 L274.356,0.468 L269.856,0.468 L269.856,15.588 C269.856,23.004 272.448,25.776 279.54,25.776 Z M296.784,25.308 L302.328,14.076 L303.012,14.076 L308.556,25.308 L313.344,25.308 L306.72,12.528 L312.876,0.468 L308.124,0.468 L303.084,10.836 L302.256,10.836 L297.216,0.468 L292.5,0.468 L298.62,12.528 L292.032,25.308 L296.784,25.308 Z"/><path fill="#FAFAFA" d="M340.704,25.092 L340.488,21.672 L330.768,21.672 C329.472,21.672 328.968,21.132 328.968,19.584 L328.968,14.04 L339.156,14.04 L339.156,10.584 L328.968,10.584 L328.968,6.228 C328.968,4.68 329.472,4.14 330.768,4.14 L340.488,4.14 L340.704,0.684 C337.428,0.396 333.396,0.396 329.76,0.396 C326.52,0.396 324.468,2.196 324.432,5.112 L324.432,20.664 C324.468,23.58 326.484,25.38 329.76,25.38 C333.396,25.38 337.428,25.38 340.704,25.092 Z M349.524,25.308 L349.524,8.748 C349.524,7.524 349.488,6.264 349.308,5.004 L349.74,5.004 C349.992,6.156 350.748,7.704 351.216,8.712 L358.2,23.94 C358.596,24.876 359.1,25.308 360.072,25.308 L363.636,25.308 C364.716,25.308 365.292,24.732 365.292,23.652 L365.292,0.468 L360.9,0.468 L360.9,16.524 C360.9,17.856 360.972,19.188 361.08,20.556 L360.648,20.556 C360.108,19.224 359.388,17.712 358.92,16.632 L352.152,1.836 C351.72,0.9 351.252,0.468 350.28,0.468 L346.788,0.468 C345.708,0.468 345.096,1.044 345.096,2.124 L345.096,25.308 L349.524,25.308 Z M377.784,25.776 C381.24,25.776 383.724,24.12 385.056,22.86 L385.452,25.308 L388.8,25.308 L388.8,10.98 L384.408,10.98 L384.408,20.16 C382.896,21.096 381.276,21.888 379.188,21.888 C375.84,21.888 374.724,19.692 374.724,13.032 C374.724,4.932 376.38,3.96 381.096,3.96 C382.788,3.96 385.308,4.032 387.648,4.176 L388.008,0.828 C385.812,0.216 383.364,-3.55271368e-15 380.88,-3.55271368e-15 C372.852,-3.55271368e-15 370.008,2.844 370.008,12.78 C370.008,21.744 372.276,25.776 377.784,25.776 Z M398.196,25.308 L398.196,0.468 L393.696,0.468 L393.696,25.308 L398.196,25.308 Z M408.168,25.308 L408.168,8.748 C408.168,7.524 408.132,6.264 407.952,5.004 L408.384,5.004 C408.636,6.156 409.392,7.704 409.86,8.712 L416.844,23.94 C417.24,24.876 417.744,25.308 418.716,25.308 L422.28,25.308 C423.36,25.308 423.936,24.732 423.936,23.652 L423.936,0.468 L419.544,0.468 L419.544,16.524 C419.544,17.856 419.616,19.188 419.724,20.556 L419.292,20.556 C418.752,19.224 418.032,17.712 417.564,16.632 L410.796,1.836 C410.364,0.9 409.896,0.468 408.924,0.468 L405.432,0.468 C404.352,0.468 403.74,1.044 403.74,2.124 L403.74,25.308 L408.168,25.308 Z M445.536,25.092 L445.32,21.672 L435.6,21.672 C434.304,21.672 433.8,21.132 433.8,19.584 L433.8,14.04 L443.988,14.04 L443.988,10.584 L433.8,10.584 L433.8,6.228 C433.8,4.68 434.304,4.14 435.6,4.14 L445.32,4.14 L445.536,0.684 C442.26,0.396 438.228,0.396 434.592,0.396 C431.352,0.396 429.3,2.196 429.264,5.112 L429.264,20.664 C429.3,23.58 431.316,25.38 434.592,25.38 C438.228,25.38 442.26,25.38 445.536,25.092 Z M465.984,25.092 L465.768,21.672 L456.048,21.672 C454.752,21.672 454.248,21.132 454.248,19.584 L454.248,14.04 L464.436,14.04 L464.436,10.584 L454.248,10.584 L454.248,6.228 C454.248,4.68 454.752,4.14 456.048,4.14 L465.768,4.14 L465.984,0.684 C462.708,0.396 458.676,0.396 455.04,0.396 C451.8,0.396 449.748,2.196 449.712,5.112 L449.712,20.664 C449.748,23.58 451.764,25.38 455.04,25.38 C458.676,25.38 462.708,25.38 465.984,25.092 Z M474.84,25.308 L474.84,15.372 L479.304,15.372 C480.816,15.372 481.68,15.984 482.184,17.604 L484.164,25.308 L488.952,25.308 L486.72,17.532 C486.18,15.156 484.632,14.148 483.408,13.86 L483.408,13.68 C486.828,13.248 488.052,11.124 488.052,7.416 C488.052,1.764 485.532,0.144 479.412,0.144 C475.164,0.144 473.22,0.18 470.376,0.468 L470.376,25.308 L474.84,25.308 Z M479.304,11.664 L474.84,11.664 L474.84,3.852 L479.304,3.852 C482.472,3.852 483.48,4.644 483.48,7.704 C483.48,10.764 482.472,11.628 479.304,11.664 Z"/></g><rect width="4.54" height="4.5" x="58.08" y=".19" fill="#7DD3FC" rx="1"/><rect width="4.54" height="4.5" x="157.65" y=".19" fill="#7DD3FC" rx="1"/></g></svg>