<svg class="logo" xmlns="http://www.w3.org/2000/svg" viewBox="0 0 589 49"><defs><filter id="a" width="104.4%" height="168.8%" x="-2.2%" y="-35.9%" filterUnits="objectBoundingBox"><feOffset dx="2" dy="2" in="SourceAlpha" result="shadowOffsetOuter1"/><feGaussianBlur in="shadowOffsetOuter1" result="shadowBlurOuter1" stdDeviation="1.5"/><feColorMatrix in="shadowBlurOuter1" result="shadowMatrixOuter1" values="0 0 0 0 0 0 0 0 0 0 0 0 0 0 0 0 0 0 0.2 0"/><feMerge><feMergeNode in="shadowMatrixOuter1"/><feMergeNode in="SourceGraphic"/></feMerge></filter></defs><g fill="none" fill-rule="evenodd" filter="url(#a)" transform="translate(10 9)"><g fill-rule="nonzero"><path fill="#FAFAFA" d="M38.476 26.432c2.232 0 5.4-.288 7.272-1.188l-.396-2.808c-2.124.252-4.644.432-6.336.432-3.024 0-4.356-.648-4.716-3.852h7.2c3.276 0 4.716-1.872 4.716-5.04 0-3.996-2.304-6.12-8.028-6.12-5.976 0-8.532 2.304-8.532 9.288 0 6.696 2.412 9.288 8.82 9.288Zm1.8-10.476h-6.084c.144-3.708 1.116-4.644 4.176-4.644 2.7 0 3.492.72 3.492 2.592 0 .936-.18 2.052-1.584 2.052ZM54.568 26V13.508c2.52-.972 4.14-1.548 5.832-1.548h1.26l.468-4.104h-.864c-2.304 0-4.86 1.116-7.272 3.096l-.396-2.592h-3.42V26h4.392ZM68.356 5.192c.864 0 1.26-.432 1.26-1.26v-1.98c0-.792-.396-1.26-1.26-1.26H66.34c-.828 0-1.26.468-1.26 1.26v1.98c0 .828.432 1.26 1.26 1.26h2.016ZM69.544 26V8.36h-4.356V26h4.356Zm12.852.432c2.232 0 4.644-.324 6.48-1.08l-.396-2.88c-1.944.288-4.212.36-5.292.36-3.6 0-4.824-1.26-4.824-5.688 0-4.392 1.224-5.616 4.824-5.616 1.296 0 3.132 0 4.896.072l.504-2.736c-1.836-.756-4.428-1.008-6.156-1.008-6.3 0-8.64 2.484-8.64 9.288 0 6.84 2.304 9.288 8.604 9.288Zm25.848 0c2.232 0 4.644-.324 6.48-1.08l-.396-2.88c-1.944.288-4.212.36-5.292.36-3.6 0-4.824-1.26-4.824-5.688 0-4.392 1.224-5.616 4.824-5.616 1.296 0 3.132 0 4.896.072l.504-2.736c-1.836-.756-4.428-1.008-6.156-1.008-6.3 0-8.64 2.484-8.64 9.288 0 6.84 2.304 9.288 8.604 9.288Zm14.796-.036c3.168 0 5.472-1.692 6.732-3.06L130.24 26h3.456V14.012c0-4.716-2.268-6.156-6.624-6.156-2.34 0-6.3.396-8.82.864l.432 3.096c2.772-.216 5.76-.36 7.38-.36 2.52 0 3.204.504 3.24 2.52v1.08h-6.624c-3.312 0-5.22 1.62-5.22 4.428v1.8c0 3.312 2.34 5.112 5.58 5.112Zm1.08-3.528c-1.584 0-2.304-.648-2.304-2.16v-.684c0-1.188.432-1.908 1.872-1.98h5.616v2.736c-1.836 1.512-3.816 2.088-5.184 2.088ZM142.84 26V13.508c2.52-.972 4.14-1.548 5.832-1.548h1.26l.468-4.104h-.864c-2.304 0-4.86 1.116-7.272 3.096l-.396-2.592h-3.42V26h4.392Zm15.264.396c1.008 0 2.952-.216 3.744-.612l-.504-3.24h-1.512c-1.404 0-2.124-.648-2.124-2.052L157.744.8h-4.392v20.772c0 3.096 1.836 4.824 4.752 4.824Zm9.828-21.204c.864 0 1.26-.432 1.26-1.26v-1.98c0-.792-.396-1.26-1.26-1.26h-2.016c-.828 0-1.26.468-1.26 1.26v1.98c0 .828.432 1.26 1.26 1.26h2.016ZM169.12 26V8.36h-4.356V26h4.356Zm19.728-4.824c0-3.096-1.296-4.248-4.212-5.076l-4.752-1.296c-1.656-.468-2.412-.504-2.412-1.908 0-1.476.792-1.512 3.744-1.512 2.232 0 4.5.072 6.732.144l.324-3.024c-2.16-.36-5.4-.612-7.812-.648-5.184 0-7.2 1.116-7.2 5.004 0 2.808 1.008 4.284 4.14 5.184l4.644 1.26c1.656.468 2.592.576 2.592 1.908 0 1.366-.954 1.676-4.454 1.691l-.298.001c-2.268 0-4.608-.036-6.012-.144l-.288 3.06c2.967.5 5.748.568 7.087.575l.293.001c5.508 0 7.884-.9 7.884-5.22Zm8.712 5.22c1.008 0 2.952-.216 3.744-.612l-.504-3.24h-1.512c-1.404 0-2.124-.648-2.124-2.052L197.2.8h-4.392v20.772c0 3.096 1.836 4.824 4.752 4.824Zm14.544.036c2.232 0 5.4-.288 7.272-1.188l-.396-2.808c-2.124.252-4.644.432-6.336.432-3.024 0-4.356-.648-4.716-3.852h7.2c3.276 0 4.716-1.872 4.716-5.04 0-3.996-2.304-6.12-8.028-6.12-5.976 0-8.532 2.304-8.532 9.288 0 6.696 2.412 9.288 8.82 9.288Zm1.8-10.476h-6.084c.144-3.708 1.116-4.644 4.176-4.644 2.7 0 3.492.72 3.492 2.592 0 .936-.18 2.052-1.584 2.052Zm20.376-1.08c1.188 0 1.584-.396 1.584-1.548v-1.836c0-1.152-.396-1.548-1.584-1.548h-1.296c-1.188 0-1.584.396-1.584 1.548v1.836c0 1.152.396 1.548 1.584 1.548h1.296Zm0 11.124c1.188 0 1.584-.396 1.584-1.548v-1.836c0-1.152-.396-1.548-1.584-1.548h-1.296c-1.188 0-1.584.396-1.584 1.548v1.836c0 1.152.396 1.548 1.584 1.548h1.296Z"/><path fill="#7DD3FC" d="M258.508 26.468c6.804 0 9.288-2.772 9.288-10.188V1.16h-4.536v15.12c0 4.788-1.26 6.336-4.932 6.336-3.744 0-5.004-1.548-5.004-6.336V1.16h-4.5v15.12c0 7.416 2.592 10.188 9.684 10.188ZM277.66 26V1.16h-4.5V26h4.5Z"/><path fill="#FAFAFA" d="M285.256 31.04c.972-1.728 1.548-3.6 1.584-6.12l-.036-2.304c.036-1.152-.324-1.548-1.476-1.548h-1.188c-1.116 0-1.548.396-1.62 1.548v2.016c0 .864.432 1.368 1.224 1.368 0 1.728-.144 2.988-.468 4.5l1.98.54Z"/><path fill="#7DD3FC" d="M309.196 26.468c6.804 0 9.288-2.772 9.288-10.188V1.16h-4.536v15.12c0 4.788-1.26 6.336-4.932 6.336-3.744 0-5.004-1.548-5.004-6.336V1.16h-4.5v15.12c0 7.416 2.592 10.188 9.684 10.188ZM326.44 26l5.544-11.232h.684L338.212 26H343l-6.624-12.78 6.156-12.06h-4.752l-5.04 10.368h-.828l-5.04-10.368h-4.716l6.12 12.06L321.688 26h4.752Z"/><path fill="#FAFAFA" d="m370.36 25.784-.216-3.42h-9.72c-1.296 0-1.8-.54-1.8-2.088v-5.544h10.188v-3.456h-10.188V6.92c0-1.548.504-2.088 1.8-2.088h9.72l.216-3.456c-3.276-.288-7.308-.288-10.944-.288-3.24 0-5.292 1.8-5.328 4.716v15.552c.036 2.916 2.052 4.716 5.328 4.716 3.636 0 7.668 0 10.944-.288Zm8.82.216V9.44c0-1.224-.036-2.484-.216-3.744h.432c.252 1.152 1.008 2.7 1.476 3.708l6.984 15.228c.396.936.9 1.368 1.872 1.368h3.564c1.08 0 1.656-.576 1.656-1.656V1.16h-4.392v16.056c0 1.332.072 2.664.18 4.032h-.432c-.54-1.332-1.26-2.844-1.728-3.924l-6.768-14.796c-.432-.936-.9-1.368-1.872-1.368h-3.492c-1.08 0-1.692.576-1.692 1.656V26h4.428Zm28.26.468c3.456 0 5.94-1.656 7.272-2.916l.396 2.448h3.348V11.672h-4.392v9.18c-1.512.936-3.132 1.728-5.22 1.728-3.348 0-4.464-2.196-4.464-8.856 0-8.1 1.656-9.072 6.372-9.072 1.692 0 4.212.072 6.552.216l.36-3.348c-2.196-.612-4.644-.828-7.128-.828-8.028 0-10.872 2.844-10.872 12.78 0 8.964 2.268 12.996 7.776 12.996ZM427.852 26V1.16h-4.5V26h4.5Zm9.972 0V9.44c0-1.224-.036-2.484-.216-3.744h.432c.252 1.152 1.008 2.7 1.476 3.708l6.984 15.228c.396.936.9 1.368 1.872 1.368h3.564c1.08 0 1.656-.576 1.656-1.656V1.16H449.2v16.056c0 1.332.072 2.664.18 4.032h-.432c-.54-1.332-1.26-2.844-1.728-3.924l-6.768-14.796c-.432-.936-.9-1.368-1.872-1.368h-3.492c-1.08 0-1.692.576-1.692 1.656V26h4.428Zm37.368-.216-.216-3.42h-9.72c-1.296 0-1.8-.54-1.8-2.088v-5.544h10.188v-3.456h-10.188V6.92c0-1.548.504-2.088 1.8-2.088h9.72l.216-3.456c-3.276-.288-7.308-.288-10.944-.288-3.24 0-5.292 1.8-5.328 4.716v15.552c.036 2.916 2.052 4.716 5.328 4.716 3.636 0 7.668 0 10.944-.288Zm20.448 0-.216-3.42h-9.72c-1.296 0-1.8-.54-1.8-2.088v-5.544h10.188v-3.456h-10.188V6.92c0-1.548.504-2.088 1.8-2.088h9.72l.216-3.456c-3.276-.288-7.308-.288-10.944-.288-3.24 0-5.292 1.8-5.328 4.716v15.552c.036 2.916 2.052 4.716 5.328 4.716 3.636 0 7.668 0 10.944-.288Zm8.856.216v-9.936h4.464c1.512 0 2.376.612 2.88 2.232L513.82 26h4.788l-2.232-7.776c-.54-2.376-2.088-3.384-3.312-3.672v-.18c3.42-.432 4.644-2.556 4.644-6.264 0-5.652-2.52-7.272-8.64-7.272-4.248 0-6.192.036-9.036.324V26h4.464Zm4.464-13.644h-4.464V4.544h4.464c3.168 0 4.176.792 4.176 3.852 0 3.06-1.008 3.924-4.176 3.96Z"/></g><rect width="4.54" height="4.5" x="65.08" y=".69" fill="#7DD3FC" rx="1"/><rect width="4.54" height="4.5" x="164.65" y=".69" fill="#7DD3FC" rx="1"/><path stroke="#7DD3FC" stroke-linecap="round" stroke-width="3" d="m0 14 4.947-4.947L6.5 7.5 13 1M0 14l4.947 4.947L6.5 20.5 13 27M569 14l-4.947 4.947L562.5 20.5 556 27M569 14l-4.947-4.947L562.5 7.5 556 1M548.5.5l-13 26"/></g></svg>